<svg width="64" height="64" viewBox="0 0 64 64" fill="none" xmlns="http://www.w3.org/2000/svg">
<path d="M6 17.9421V46.0579C6.00446 46.3923 6.09734 46.7194 6.26905 47.0055C6.44076 47.2917 6.6851 47.5265 6.97688 47.6858L31.1484 61.7438C31.4288 61.9115 31.749 62 32.0751 62C32.4013 62 32.7214 61.9115 33.0019 61.7438L57.0732 47.6858C57.3557 47.52 57.5899 47.2824 57.7526 46.9967C57.9152 46.711 58.0005 46.3873 58 46.0579V17.9421C58.0005 17.6127 57.9152 17.289 57.7526 17.0033C57.5899 16.7176 57.3557 16.48 57.0732 16.3142L32.9518 2.25623C32.6713 2.08851 32.3512 2 32.025 2C31.6989 2 31.3788 2.08851 31.0983 2.25623L6.97688 16.3142C6.6851 16.4735 6.44076 16.7083 6.26905 16.9944C6.09734 17.2806 6.00446 17.6077 6 17.9421Z" fill="#FF9DA2"/>
<path d="M31.9747 32L58 16.9956C57.8317 16.7119 57.592 16.477 57.3048 16.3142L45.1074 9.2852L32.9101 2.25623C32.627 2.08851 32.3039 2 31.9747 2C31.6455 2 31.3225 2.08851 31.0394 2.25623L18.842 9.2852L6.69519 16.3142C6.40796 16.477 6.16832 16.7119 6 16.9956L31.9747 32Z" fill="#FFC0C3"/>
<path d="M31.9864 12L15 21.9566V33.31L23.001 38V26.6594L40 16.69L31.9864 12Z" fill="#EBEEF2"/>
<path d="M31.9864 12L15 22.1879L23.001 27L40 16.799L31.9864 12Z" fill="white"/>
<path d="M32 32.0042V62C32.3258 61.9987 32.6456 61.9117 32.9277 61.7476L45.0251 54.7187L57.0723 47.6898C57.355 47.5241 57.5895 47.2864 57.7523 47.0007C57.9151 46.7151 58.0006 46.3913 58 46.062V17.9464C57.9982 17.6162 57.9164 17.2913 57.7618 17L32 32.0042Z" fill="#FF3841"/>
<path d="M39.492 44.0281C39.5178 44.0098 39.5488 44 39.5807 44C39.6125 44 39.6435 44.0098 39.6693 44.0281L41.9487 45.8749C42.0754 45.9747 41.9487 46.2867 41.7715 46.399L41.2396 46.6984C41.1737 46.741 41.1187 46.7981 41.0792 46.8653C41.0396 46.9324 41.0165 47.0078 41.0116 47.0853V48.9071C41.0034 49.077 40.9544 49.2425 40.8685 49.39C40.7827 49.5375 40.6624 49.6628 40.5178 49.7556L38.5042 50.941C38.2256 51.0908 37.9977 50.941 37.9977 50.654V48.8073C37.9977 48.6575 37.8964 48.6076 37.7698 48.67L37.2252 48.9819C37.0353 49.0942 36.934 48.8946 37.0479 48.6575L39.3147 44.2278C39.3568 44.1482 39.4176 44.0798 39.492 44.0281Z" fill="white"/>
<path d="M46.5109 40.0283C46.5366 40.0099 46.5673 40 46.5989 40C46.6305 40 46.6612 40.0099 46.6869 40.0283L48.9491 41.8868C49.0748 41.9873 48.9491 42.3012 48.7732 42.4142L48.2453 42.7282C48.1777 42.7686 48.1214 42.8255 48.0819 42.8936C48.0423 42.9617 48.0207 43.0387 48.0191 43.1175V44.9383C48.012 45.1095 47.9637 45.2765 47.8784 45.4251C47.7931 45.5737 47.6732 45.6996 47.5289 45.7922L45.4803 46.935C45.2038 47.0982 44.9776 46.935 44.9776 46.6587V44.8253C44.9776 44.6872 44.8771 44.6244 44.7514 44.6997L44.2235 45.0011C44.035 45.1141 43.9345 44.9257 44.0476 44.6746L46.2973 40.2292C46.3456 40.1415 46.4204 40.0712 46.5109 40.0283Z" fill="white"/>
</svg>
