<svg width="132" height="53" viewBox="0 0 132 53" fill="none" xmlns="http://www.w3.org/2000/svg">
<path d="M71.3378 12.8497V39H65.295V12.8497H71.3378ZM84.6929 39.2827C82.7611 39.2827 81.0177 38.8704 79.4628 38.0459C77.9315 37.2213 76.7182 36.0434 75.823 34.512C74.9513 32.9807 74.5155 31.1903 74.5155 29.1406C74.5155 27.1146 74.9631 25.3359 75.8583 23.8046C76.7536 22.2497 77.9786 21.06 79.5335 20.2354C81.0884 19.4108 82.8318 18.9986 84.7636 18.9986C86.6954 18.9986 88.4387 19.4108 89.9936 20.2354C91.5485 21.06 92.7736 22.2497 93.6688 23.8046C94.564 25.3359 95.0117 27.1146 95.0117 29.1406C95.0117 31.1667 94.5523 32.9572 93.6335 34.512C92.7382 36.0434 91.5014 37.2213 89.923 38.0459C88.3681 38.8704 86.6247 39.2827 84.6929 39.2827ZM84.6929 34.0526C85.8473 34.0526 86.825 33.6286 87.626 32.7805C88.4505 31.9324 88.8628 30.7191 88.8628 29.1406C88.8628 27.5622 88.4623 26.3489 87.6613 25.5008C86.8839 24.6527 85.918 24.2286 84.7636 24.2286C83.5856 24.2286 82.6079 24.6527 81.8305 25.5008C81.0531 26.3254 80.6643 27.5386 80.6643 29.1406C80.6643 30.7191 81.0413 31.9324 81.7952 32.7805C82.5726 33.6286 83.5385 34.0526 84.6929 34.0526ZM105.709 18.9986C107.099 18.9986 108.312 19.2813 109.349 19.8467C110.409 20.4121 111.222 21.1542 111.787 22.073V19.2813H117.83V38.9647C117.83 40.7787 117.465 42.416 116.735 43.8767C116.028 45.3609 114.932 46.5388 113.448 47.4105C111.988 48.2822 110.162 48.718 107.971 48.718C105.05 48.718 102.682 48.023 100.868 46.6331C99.0538 45.2666 98.0172 43.4055 97.7581 41.0496H103.73C103.919 41.8035 104.366 42.3925 105.073 42.8165C105.78 43.2641 106.652 43.488 107.688 43.488C108.937 43.488 109.926 43.1228 110.657 42.3925C111.41 41.6857 111.787 40.5431 111.787 38.9647V36.1729C111.198 37.0917 110.386 37.8456 109.349 38.4346C108.312 39 107.099 39.2827 105.709 39.2827C104.084 39.2827 102.611 38.8704 101.292 38.0459C99.9726 37.1978 98.9243 36.008 98.1468 34.4767C97.3929 32.9218 97.016 31.1314 97.016 29.1053C97.016 27.0792 97.3929 25.3005 98.1468 23.7692C98.9243 22.2379 99.9726 21.06 101.292 20.2354C102.611 19.4108 104.084 18.9986 105.709 18.9986ZM111.787 29.1406C111.787 27.6329 111.363 26.4432 110.515 25.5715C109.691 24.6998 108.678 24.264 107.476 24.264C106.275 24.264 105.25 24.6998 104.402 25.5715C103.577 26.4196 103.165 27.5975 103.165 29.1053C103.165 30.6131 103.577 31.8146 104.402 32.7098C105.25 33.5815 106.275 34.0173 107.476 34.0173C108.678 34.0173 109.691 33.5815 110.515 32.7098C111.363 31.8381 111.787 30.6484 111.787 29.1406ZM125.241 17.2317C124.181 17.2317 123.309 16.9254 122.626 16.3129C121.966 15.6768 121.637 14.8993 121.637 13.9805C121.637 13.0382 121.966 12.2607 122.626 11.6482C123.309 11.0121 124.181 10.6941 125.241 10.6941C126.278 10.6941 127.126 11.0121 127.785 11.6482C128.469 12.2607 128.81 13.0382 128.81 13.9805C128.81 14.8993 128.469 15.6768 127.785 16.3129C127.126 16.9254 126.278 17.2317 125.241 17.2317ZM128.245 19.2813V39H122.202V19.2813H128.245Z" fill="white"/>
<rect x="12.6208" y="1.26172" width="37.8624" height="37.8624" fill="#5B688B"/>
<circle cx="12.6208" cy="26.5031" r="12.6208" fill="white"/>
</svg>
