<svg width="54" height="64" viewBox="0 0 54 64" fill="none" xmlns="http://www.w3.org/2000/svg">
<path d="M12 18.5C12 21.5376 9.76142 28 7 28C4.23858 28 2 21.5376 2 18.5C2 15.4624 4.23858 13 7 13C9.76142 13 12 15.4624 12 18.5Z" fill="#FFC0C3"/>
<ellipse cx="7" cy="18.5" rx="2" ry="2.5" fill="white"/>
<path d="M49 8C49 11.3137 46.366 21.5 42.5 21.5C38.634 21.5 35 11.3137 35 8C35 4.68629 38.134 1.5 42 1.5C45.866 1.5 49 4.68629 49 8Z" fill="#FF9DA2"/>
<circle cx="42.5" cy="8.5" r="3.5" fill="white"/>
<path d="M52 37C52 50.8071 40.1127 62.5 31 62.5C25.6018 62.5 26.5 56.5 26.5 56.5L26.5 39L26.5 17.5C26.5 17.5 25.9551 13 31.5 13C33.986 13 38.5 15.5 38.5 15.5L42 22L44 19C44 19 52 29.2131 52 37Z" fill="#FFC0C3"/>
<path d="M52 37C52 50.8071 40.1127 62.5 31 62.5C25.6018 62.5 26.5 56.5 26.5 56.5L26.5 39L26.5 17.5C26.5 17.5 25.9551 13 31.5 13C33.986 13 38.5 15.5 38.5 15.5L42 22L44 19C44 19 52 29.2131 52 37Z" fill="#FFC0C3"/>
<path d="M25.959 30L27 54.5C27 54.5 28.041 63.5 24 63C19.959 62.5 10.9885 59.009 6.45898 53.5C2.8039 49.0545 1 40.4462 1 36.5C1 33.1024 4 24.5 4 24.5L7 29.5L12.5 19C12.5 19 13.663 17 15.5 15.5C17.337 14 19.848 13 21.459 13C29.7433 13 25.959 30 25.959 30Z" fill="#FF9DA2"/>
<path d="M6.99988 16.8882C7.8889 16.8882 8.61229 17.6112 8.61229 18.5C8.61229 18.5792 8.60453 18.656 8.59356 18.7327C8.49173 19.4342 7.93692 19.9896 7.23548 20.0936C7.15848 20.1043 7.08009 20.1126 6.99988 20.1126C6.11078 20.1126 5.38771 19.3888 5.38771 18.5C5.38771 17.6112 6.11078 16.8882 6.99988 16.8882V16.8882ZM5.78456 21.7788C6.164 21.9191 6.57208 22 6.99988 22C8.92976 22 10.5 20.4303 10.5 18.5C10.5 18.07 10.4181 17.6599 10.2756 17.2786C9.77859 15.9499 8.49973 15 6.99988 15C5.06992 15 3.5 16.5705 3.5 18.5C3.5 20.0028 4.45289 21.2828 5.78456 21.7788" fill="#FF3841"/>
<path d="M42.4999 6.06375C43.8439 6.06375 44.9362 7.15696 44.9362 8.50001C44.9362 9.84397 43.8439 10.9372 42.4999 10.9372C41.1568 10.9372 40.0636 9.84397 40.0636 8.50001C40.0636 7.15696 41.1568 6.06375 42.4999 6.06375ZM42.4999 13C44.9813 13 47 10.9814 47 8.50001C47 6.01865 44.9813 4 42.4999 4C40.0189 4 38 6.01865 38 8.50001C38 10.9814 40.0189 13 42.4999 13Z" fill="#FF3841"/>
<path d="M4.50623 28.2787C5.25309 29.46 5.84509 30.3259 6.02575 30.5878C6.26107 30.9284 6.64818 31.1313 7.06204 31.1313C7.47582 31.1313 7.86325 30.9284 8.09826 30.5878C8.14403 30.5218 8.9745 29.3161 10.0071 27.6463C10.9383 28.1591 11.919 28.6287 12.9423 29.0518C12.0692 31.4679 11.5564 33.866 11.4204 36.2058H2.71104C2.85638 33.4114 3.4822 30.7428 4.50623 28.2787ZM7.06204 13.7237C8.76678 13.7237 10.2544 14.6683 11.0317 16.0604C11.3964 16.714 11.6053 17.4666 11.6053 18.2665C11.6053 18.4144 11.5764 18.6165 11.5177 18.8674C11.2818 19.8725 10.5533 21.6846 9.1631 24.166C8.78495 24.8409 8.35694 25.566 7.87741 26.3368C7.62054 26.7505 7.34959 27.176 7.06204 27.6149C6.60516 26.9165 6.18918 26.2526 5.80852 25.6211C5.26009 24.7111 4.78795 23.8719 4.38762 23.1098C3.06748 20.5969 2.51905 18.9201 2.51905 18.2665C2.51905 15.7615 4.55688 13.7237 7.06204 13.7237ZM23.357 13.6828C22.0412 14.9648 20.3628 16.7438 18.6746 18.9217C16.6804 21.4943 15.0807 24.1118 13.8923 26.7238C12.9863 26.3486 12.1184 25.9333 11.2934 25.4827C13.1955 22.144 14.1243 19.7797 14.1243 18.2665C14.1243 17.8607 14.0877 17.4627 14.0213 17.075C16.8057 15.3376 19.9692 14.1554 23.357 13.6828ZM36.2845 15.45C38.2665 19.2378 40.7891 22.9328 41.2398 23.5848C41.4749 23.9254 41.8619 24.1283 42.2756 24.1283C42.6893 24.1283 43.0771 23.9254 43.3122 23.5848C43.4908 23.3261 43.9965 22.5875 44.665 21.5533C45.2816 22.2486 45.8581 22.98 46.3914 23.7429C44.4928 25.1673 42.2339 26.3455 39.7273 27.2421C38.5196 24.4586 36.8428 21.665 34.718 18.9217C33.0313 16.7446 31.3545 14.9663 30.0392 13.6836C32.2288 13.9903 34.3245 14.5928 36.2845 15.45ZM48.2192 8.46276C48.2192 10.2182 46.2828 14.0359 44.1939 17.5374C43.7479 18.2854 43.2949 19.0184 42.8529 19.7137C42.6578 20.0204 42.4652 20.3193 42.2756 20.6087C41.7188 19.7569 41.1312 18.8241 40.5516 17.8615C39.6871 16.4269 38.8398 14.9262 38.1334 13.5262C37.0735 11.4247 36.3322 9.54892 36.3322 8.46276C36.3322 5.18541 38.9983 2.51917 42.2756 2.51917C45.553 2.51917 48.2192 5.18541 48.2192 8.46276ZM41.9681 36.2058C41.8415 34.039 41.3932 31.8219 40.6346 29.5874C43.2823 28.635 45.6851 27.3899 47.7284 25.8877C49.4359 28.9771 50.4835 32.4802 50.677 36.2058H41.9681ZM47.203 49.9491C45.166 48.5374 42.8026 47.3686 40.2143 46.4767C41.2288 43.864 41.8202 41.2638 41.9673 38.725H50.677C50.4639 42.8195 49.2212 46.6458 47.203 49.9491ZM29.8402 61.2748C31.1824 59.9983 32.9419 58.1775 34.7118 55.9179C36.5497 53.571 38.0523 51.1816 39.2072 48.7891C41.6535 49.6157 43.8769 50.705 45.7779 52.0263C41.9885 56.9813 36.3171 60.4238 29.8402 61.2748ZM8.19413 52.7625C8.20152 52.7562 8.20978 52.753 8.21749 52.7467C9.98468 51.3562 12.0846 50.1898 14.4204 49.2751C15.5412 51.5056 16.9627 53.7299 18.6762 55.9179C20.4461 58.1775 22.2056 59.9983 23.5478 61.2748C17.3962 60.4662 11.9706 57.3218 8.19413 52.7625ZM25.4345 15.1905V29.2146C22.1963 29.0487 19.0909 28.4926 16.2659 27.5905C18.8586 22.022 22.9752 17.5532 25.4345 15.1905ZM27.9535 29.2634V15.1834C30.4706 17.6019 34.7318 22.2352 37.3103 27.9987C34.3945 28.7891 31.2245 29.2256 27.9535 29.2634ZM27.9535 59.5799V46.9494C31.0171 46.9848 33.9923 47.3694 36.7525 48.0671C34.1503 53.2462 30.2951 57.3627 27.9535 59.5799ZM25.4345 46.9982V59.583C23.1491 57.4233 19.4218 53.4546 16.8248 48.4485C19.4983 47.6486 22.4083 47.1531 25.4345 46.9982ZM13.9433 38.725H25.4345V44.4774C22.032 44.6418 18.7545 45.2144 15.7495 46.1488C14.7845 43.8294 14.1111 41.333 13.9433 38.725ZM37.7998 45.7422C34.7137 44.921 31.3806 44.468 27.9535 44.4303V38.725H39.4447C39.2861 41.1804 38.6778 43.5376 37.7998 45.7422ZM39.4447 36.2058H27.9535V31.7817C31.5437 31.7424 35.032 31.2485 38.2401 30.3511C38.88 32.219 39.3144 34.1821 39.4447 36.2058ZM15.3006 29.9217C18.4264 30.941 21.862 31.5623 25.4345 31.7353V36.2058H13.9433C14.0837 34.0264 14.5774 31.9178 15.3006 29.9217ZM11.4204 38.725C11.5777 41.4274 12.2379 44.2014 13.3762 46.984C10.8713 47.9758 8.6098 49.2389 6.69238 50.7419C4.3759 47.264 2.94085 43.1514 2.71104 38.725H11.4204ZM26.6941 64C41.3255 64 53.2284 52.0963 53.2284 37.4658C53.2284 30.4636 50.5008 24.0874 46.0547 19.3401C48.1814 15.8441 50.7384 11.0944 50.7384 8.46276C50.7384 3.79645 46.9419 0 42.2756 0C37.6096 0 33.8132 3.79645 33.8132 8.46276C33.8132 9.46004 34.1804 10.7609 34.7521 12.1829C32.2098 11.3705 29.5025 10.9308 26.6941 10.9308C21.7429 10.9308 17.1046 12.2954 13.1341 14.6659C11.9015 12.5958 9.64153 11.2045 7.06204 11.2045C3.16823 11.2045 0.00012207 14.3725 0.00012207 18.2665C0.00012207 20.0762 1.44839 23.0728 2.93165 25.6675C1.15895 29.2233 0.159547 33.2297 0.159547 37.4658C0.159547 52.0963 12.0628 64 26.6941 64Z" fill="#FF3841"/>
</svg>
