<svg width="1018" height="901" viewBox="0 0 1018 901" fill="none" xmlns="http://www.w3.org/2000/svg">
<path d="M303.528 265.236C306.343 263.828 309.657 263.828 312.472 265.236L598.111 408.056C605.482 411.741 605.482 422.259 598.111 425.944L312.472 568.764C309.657 570.172 306.343 570.172 303.528 568.764L17.8885 425.944C10.5181 422.259 10.5181 411.741 17.8885 408.056L303.528 265.236Z" fill="white"/>
<path d="M407 279L697.111 424.056C704.482 427.741 704.482 438.259 697.111 441.944L407 587L216.004 685.475C208.731 689.225 208.795 699.648 216.115 703.307L506.5 848.5" stroke="url(#paint0_linear_44_2672)" stroke-width="11"/>
<path d="M729.528 484.236C732.343 482.828 735.657 482.828 738.472 484.236L1135.11 682.556C1142.48 686.241 1142.48 696.759 1135.11 700.444L738.472 898.764C735.657 900.172 732.343 900.172 729.528 898.764L332.889 700.444C325.518 696.759 325.518 686.241 332.889 682.556L729.528 484.236Z" fill="white"/>
<path d="M1391.53 333.236C1394.34 331.828 1397.66 331.828 1400.47 333.236L1797.11 531.556C1804.48 535.241 1804.48 545.759 1797.11 549.444L1400.47 747.764C1397.66 749.172 1394.34 749.172 1391.53 747.764L994.889 549.444C987.518 545.759 987.518 535.241 994.889 531.556L1391.53 333.236Z" fill="white"/>
<path d="M251.494 215L304.988 241.747L251.494 268.494L198 241.747L251.494 215Z" fill="white"/>
<path d="M198 241.747L251.494 268.494V371.203L198 344.456V241.747Z" fill="#FCFBFF"/>
<path d="M304.988 241.747L251.494 268.494V371.203L304.988 344.456V241.747Z" fill="#DFDFED"/>
<path d="M657.177 417L729.905 453.364L657.177 489.728L584.449 453.364L657.177 417Z" fill="white"/>
<path d="M584.449 453.364L657.177 489.728V629.366L584.449 593.002V453.364Z" fill="#FCFBFF"/>
<path d="M729.905 453.364L657.177 489.728V629.366L729.905 593.002V453.364Z" fill="#DFDFED"/>
<path d="M341.5 267.645L394.994 294.392L341.5 321.139L288.006 294.392L341.5 267.645Z" fill="white"/>
<path d="M288.006 294.392L341.5 321.139V423.848L288.006 397.101V294.392Z" fill="#FCFBFF"/>
<path d="M394.994 294.392L341.5 321.139V423.848L394.994 397.101V294.392Z" fill="#DFDFED"/>
<path d="M779.545 488.573L852.273 524.937L779.545 561.301L706.817 524.937L779.545 488.573Z" fill="white"/>
<path d="M706.817 524.937L779.545 561.301V700.939L706.817 664.575V524.937Z" fill="#FCFBFF"/>
<path d="M852.273 524.937L779.545 561.301V700.939L852.273 664.575V524.937Z" fill="#DFDFED"/>
<path d="M431.506 320.29L485 347.037L431.506 373.784L378.012 347.037L431.506 320.29Z" fill="white"/>
<path d="M378.012 347.037L431.506 373.784V476.493L378.012 449.746V347.037Z" fill="#FCFBFF"/>
<path d="M485 347.037L431.506 373.784V476.493L485 449.746V347.037Z" fill="#DFDFED"/>
<path d="M901.912 560.147L974.64 596.511L901.912 632.875L829.185 596.511L901.912 560.147Z" fill="white"/>
<path d="M829.185 596.511L901.912 632.875V772.512L829.185 736.149V596.511Z" fill="#FCFBFF"/>
<path d="M974.64 596.511L901.912 632.875V772.512L974.64 736.149V596.511Z" fill="#DFDFED"/>
<path d="M139.494 279L192.988 305.747L139.494 332.494L86 305.747L139.494 279Z" fill="white"/>
<path d="M86 305.747L139.494 332.494V435.203L86 408.456V305.747Z" fill="#FCFBFF"/>
<path d="M192.988 305.747L139.494 332.494V435.203L192.988 408.456V305.747Z" fill="#DFDFED"/>
<path d="M504.908 504.011L577.636 540.375L504.908 576.739L432.18 540.375L504.908 504.011Z" fill="white"/>
<path d="M432.18 540.375L504.908 576.739V716.377L432.18 680.013V540.375Z" fill="#FCFBFF"/>
<path d="M577.635 540.375L504.908 576.739V716.377L577.635 680.013V540.375Z" fill="#DFDFED"/>
<path d="M229.5 331.645L282.994 358.392L229.5 385.139L176.006 358.392L229.5 331.645Z" fill="white"/>
<path d="M176.006 358.392L229.5 385.139V487.848L176.006 461.101V358.392Z" fill="#FCFBFF"/>
<path d="M282.994 358.392L229.5 385.139V487.848L282.994 461.101V358.392Z" fill="#DFDFED"/>
<path d="M627.275 575.585L700.003 611.949L627.275 648.313L554.547 611.949L627.275 575.585Z" fill="white"/>
<path d="M554.547 611.949L627.275 648.313V787.95L554.547 751.586V611.949Z" fill="#FCFBFF"/>
<path d="M700.003 611.949L627.275 648.313V787.95L700.003 751.586V611.949Z" fill="#DFDFED"/>
<path d="M319.506 384.29L373 411.037L319.506 437.784L266.012 411.037L319.506 384.29Z" fill="white"/>
<path d="M266.012 411.037L319.506 437.784V540.493L266.012 513.746V411.037Z" fill="#FCFBFF"/>
<path d="M373 411.037L319.506 437.784V540.493L373 513.746V411.037Z" fill="#DFDFED"/>
<path d="M749.643 647.158L822.371 683.522L749.643 719.886L676.915 683.522L749.643 647.158Z" fill="white"/>
<path d="M676.915 683.522L749.643 719.886V859.524L676.915 823.16V683.522Z" fill="#FCFBFF"/>
<path d="M822.371 683.522L749.643 719.886V859.524L822.371 823.16V683.522Z" fill="#DFDFED"/>
<path d="M928.528 -78.7639C931.343 -80.1716 934.657 -80.1716 937.472 -78.7639L1507.11 206.056C1514.48 209.741 1514.48 220.259 1507.11 223.944L937.472 508.764C934.657 510.172 931.343 510.172 928.528 508.764L358.889 223.944C351.518 220.259 351.518 209.741 358.889 206.056L928.528 -78.7639Z" fill="white"/>
<path d="M674.5 -12L733 17.25L674.5 46.5L616 17.25L674.5 -12Z" fill="white"/>
<path d="M616 17.25L674.5 46.5V158.82L616 129.57V17.25Z" fill="#FCFBFF"/>
<path d="M733 17.25L674.5 46.5V158.82L733 129.57V17.25Z" fill="#DFDFED"/>
<path d="M830 -76.75L888.5 -47.5V64.82L830 35.57V-76.75Z" fill="#FCFBFF"/>
<path d="M947 -76.75L888.5 -47.5V64.82L947 35.57V-76.75Z" fill="#DFDFED"/>
<path d="M567.5 35L626 64.25L567.5 93.5L509 64.25L567.5 35Z" fill="white"/>
<path d="M509 64.25L567.5 93.5V205.82L509 176.57V64.25Z" fill="#FCFBFF"/>
<path d="M626 64.25L567.5 93.5V205.82L626 176.57V64.25Z" fill="#DFDFED"/>
<path d="M762.5 31L821 60.25L762.5 89.5L704 60.25L762.5 31Z" fill="white"/>
<path d="M704 60.25L762.5 89.5V201.82L704 172.57V60.25Z" fill="#FCFBFF"/>
<path d="M821 60.25L762.5 89.5V201.82L821 172.57V60.25Z" fill="#DFDFED"/>
<path d="M918 -33.75L976.5 -4.5V107.82L918 78.57V-33.75Z" fill="#FCFBFF"/>
<path d="M1035 -33.75L976.5 -4.5V107.82L1035 78.57V-33.75Z" fill="#DFDFED"/>
<path d="M655.5 78L714 107.25L655.5 136.5L597 107.25L655.5 78Z" fill="white"/>
<path d="M597 107.25L655.5 136.5V248.82L597 219.57V107.25Z" fill="#FCFBFF"/>
<path d="M714 107.25L655.5 136.5V248.82L714 219.57V107.25Z" fill="#DFDFED"/>
<path d="M1064.5 -20L1123 9.25L1064.5 38.5L1006 9.25L1064.5 -20Z" fill="white"/>
<path d="M1006 9.25L1064.5 38.5V150.82L1006 121.57V9.25Z" fill="#FCFBFF"/>
<path d="M938.5 117L997 146.25L938.5 175.5L880 146.25L938.5 117Z" fill="white"/>
<path d="M880 146.25L938.5 175.5V287.82L880 258.57V146.25Z" fill="#FCFBFF"/>
<path d="M997 146.25L938.5 175.5V287.82L997 258.57V146.25Z" fill="#DFDFED"/>
<path d="M831.5 164L890 193.25L831.5 222.5L773 193.25L831.5 164Z" fill="white"/>
<path d="M773 193.25L831.5 222.5V334.82L773 305.57V193.25Z" fill="#FCFBFF"/>
<path d="M890 193.25L831.5 222.5V334.82L890 305.57V193.25Z" fill="#DFDFED"/>
<path d="M1026.5 160L1085 189.25L1026.5 218.5L968 189.25L1026.5 160Z" fill="white"/>
<path d="M968 189.25L1026.5 218.5V330.82L968 301.57V189.25Z" fill="#FCFBFF"/>
<path d="M919.5 207L978 236.25L919.5 265.5L861 236.25L919.5 207Z" fill="white"/>
<path d="M861 236.25L919.5 265.5V377.82L861 348.57V236.25Z" fill="#FCFBFF"/>
<path d="M978 236.25L919.5 265.5V377.82L978 348.57V236.25Z" fill="#DFDFED"/>
<path d="M1007.5 250L1066 279.25L1007.5 308.5L949 279.25L1007.5 250Z" fill="white"/>
<path d="M949 279.25L1007.5 308.5V420.82L949 391.57V279.25Z" fill="#FCFBFF"/>
<path d="M1066 279.25L1007.5 308.5V420.82L1066 391.57V279.25Z" fill="#DFDFED"/>
<path d="M462 137L500 156L462 175L424 156L462 137Z" fill="white"/>
<path d="M424 156L462 175V247.96L424 228.96V156Z" fill="#FCFBFF"/>
<path d="M500 156L462 175V247.96L500 228.96V156Z" fill="#DFDFED"/>
<path d="M523 168L561 187L523 206L485 187L523 168Z" fill="white"/>
<path d="M485 187L523 206V278.96L485 259.96V187Z" fill="#FCFBFF"/>
<path d="M561 187L523 206V278.96L561 259.96V187Z" fill="#DFDFED"/>
<path d="M584 199L622 218L584 237L546 218L584 199Z" fill="white"/>
<path d="M546 218L584 237V309.96L546 290.96V218Z" fill="#FCFBFF"/>
<path d="M622 218L584 237V309.96L622 290.96V218Z" fill="#DFDFED"/>
<path d="M706 261L744 280L706 299L668 280L706 261Z" fill="white"/>
<path d="M668 280L706 299V371.96L668 352.96V280Z" fill="#FCFBFF"/>
<path d="M744 280L706 299V371.96L744 352.96V280Z" fill="#DFDFED"/>
<path d="M767 292L805 311L767 330L729 311L767 292Z" fill="white"/>
<path d="M729 311L767 330V402.96L729 383.96V311Z" fill="#FCFBFF"/>
<path d="M805 311L767 330V402.96L805 383.96V311Z" fill="#DFDFED"/>
<path d="M828 323L866 342L828 361L790 342L828 323Z" fill="white"/>
<path d="M790 342L828 361V433.96L790 414.96V342Z" fill="#FCFBFF"/>
<path d="M866 342L828 361V433.96L866 414.96V342Z" fill="#DFDFED"/>
<path d="M889 354L927 373L889 392L851 373L889 354Z" fill="white"/>
<path d="M851 373L889 392V464.96L851 445.96V373Z" fill="#FCFBFF"/>
<path d="M927 373L889 392V464.96L927 445.96V373Z" fill="#DFDFED"/>
<defs>
<linearGradient id="paint0_linear_44_2672" x1="413.5" y1="286.5" x2="456.75" y2="848.5" gradientUnits="userSpaceOnUse">
<stop stop-color="#FF3841" stop-opacity="0"/>
<stop offset="0.178851" stop-color="#FF3841"/>
<stop offset="1" stop-color="#FF3841"/>
</linearGradient>
</defs>
</svg>
