<svg width="178" height="178" viewBox="0 0 178 178" fill="none" xmlns="http://www.w3.org/2000/svg">
<g opacity="0.1">
<rect width="7.73913" height="7.73913" rx="3.86957" fill="#172039"/>
<rect y="15.4783" width="7.73913" height="7.73913" rx="3.86957" fill="#172039"/>
<rect y="30.9563" width="7.73913" height="7.73913" rx="3.86957" fill="#172039"/>
<rect y="46.4348" width="7.73913" height="7.73913" rx="3.86957" fill="#172039"/>
<rect y="61.9131" width="7.73913" height="7.73913" rx="3.86957" fill="#172039"/>
<rect y="77.3911" width="7.73913" height="7.73913" rx="3.86957" fill="#172039"/>
<rect y="92.8696" width="7.73913" height="7.73913" rx="3.86957" fill="#172039"/>
<rect y="108.348" width="7.73913" height="7.73913" rx="3.86957" fill="#172039"/>
<rect y="123.826" width="7.73913" height="7.73913" rx="3.86957" fill="#172039"/>
<rect y="139.304" width="7.73913" height="7.73913" rx="3.86957" fill="#172039"/>
<rect y="154.782" width="7.73913" height="7.73913" rx="3.86957" fill="#172039"/>
<rect y="170.261" width="7.73913" height="7.73913" rx="3.86957" fill="#172039"/>
<rect x="15.478" width="7.73913" height="7.73913" rx="3.86957" fill="#172039"/>
<rect x="15.478" y="15.4783" width="7.73913" height="7.73913" rx="3.86957" fill="#172039"/>
<rect x="15.478" y="30.9563" width="7.73913" height="7.73913" rx="3.86957" fill="#172039"/>
<rect x="15.478" y="46.4348" width="7.73913" height="7.73913" rx="3.86957" fill="#172039"/>
<rect x="15.478" y="61.9131" width="7.73913" height="7.73913" rx="3.86957" fill="#172039"/>
<rect x="15.478" y="77.3911" width="7.73913" height="7.73913" rx="3.86957" fill="#172039"/>
<rect x="15.478" y="92.8696" width="7.73913" height="7.73913" rx="3.86957" fill="#172039"/>
<rect x="15.478" y="108.348" width="7.73913" height="7.73913" rx="3.86957" fill="#172039"/>
<rect x="15.478" y="123.826" width="7.73913" height="7.73913" rx="3.86957" fill="#172039"/>
<rect x="15.478" y="139.304" width="7.73913" height="7.73913" rx="3.86957" fill="#172039"/>
<rect x="15.478" y="154.782" width="7.73913" height="7.73913" rx="3.86957" fill="#172039"/>
<rect x="15.478" y="170.261" width="7.73913" height="7.73913" rx="3.86957" fill="#172039"/>
<rect x="30.9565" width="7.73913" height="7.73913" rx="3.86957" fill="#172039"/>
<rect x="30.9565" y="15.4783" width="7.73913" height="7.73913" rx="3.86957" fill="#172039"/>
<rect x="30.9565" y="30.9563" width="7.73913" height="7.73913" rx="3.86957" fill="#172039"/>
<rect x="30.9565" y="46.4348" width="7.73913" height="7.73913" rx="3.86957" fill="#172039"/>
<rect x="30.9565" y="61.9131" width="7.73913" height="7.73913" rx="3.86957" fill="#172039"/>
<rect x="30.9565" y="77.3911" width="7.73913" height="7.73913" rx="3.86957" fill="#172039"/>
<rect x="30.9565" y="92.8696" width="7.73913" height="7.73913" rx="3.86957" fill="#172039"/>
<rect x="30.9565" y="108.348" width="7.73913" height="7.73913" rx="3.86957" fill="#172039"/>
<rect x="30.9565" y="123.826" width="7.73913" height="7.73913" rx="3.86957" fill="#172039"/>
<rect x="30.9565" y="139.304" width="7.73913" height="7.73913" rx="3.86957" fill="#172039"/>
<rect x="30.9565" y="154.782" width="7.73913" height="7.73913" rx="3.86957" fill="#172039"/>
<rect x="30.9565" y="170.261" width="7.73913" height="7.73913" rx="3.86957" fill="#172039"/>
<rect x="46.4346" width="7.73913" height="7.73913" rx="3.86957" fill="#172039"/>
<rect x="46.4346" y="15.4783" width="7.73913" height="7.73913" rx="3.86957" fill="#172039"/>
<rect x="46.4346" y="30.9563" width="7.73913" height="7.73913" rx="3.86957" fill="#172039"/>
<rect x="46.4346" y="46.4348" width="7.73913" height="7.73913" rx="3.86957" fill="#172039"/>
<rect x="46.4346" y="61.9131" width="7.73913" height="7.73913" rx="3.86957" fill="#172039"/>
<rect x="46.4346" y="77.3911" width="7.73913" height="7.73913" rx="3.86957" fill="#172039"/>
<rect x="46.4346" y="92.8696" width="7.73913" height="7.73913" rx="3.86957" fill="#172039"/>
<rect x="46.4346" y="108.348" width="7.73913" height="7.73913" rx="3.86957" fill="#172039"/>
<rect x="46.4346" y="123.826" width="7.73913" height="7.73913" rx="3.86957" fill="#172039"/>
<rect x="46.4346" y="139.304" width="7.73913" height="7.73913" rx="3.86957" fill="#172039"/>
<rect x="46.4346" y="154.782" width="7.73913" height="7.73913" rx="3.86957" fill="#172039"/>
<rect x="46.4346" y="170.261" width="7.73913" height="7.73913" rx="3.86957" fill="#172039"/>
<rect x="61.9126" width="7.73913" height="7.73913" rx="3.86957" fill="#172039"/>
<rect x="61.9126" y="15.4783" width="7.73913" height="7.73913" rx="3.86957" fill="#172039"/>
<rect x="61.9126" y="30.9563" width="7.73913" height="7.73913" rx="3.86957" fill="#172039"/>
<rect x="61.9126" y="46.4348" width="7.73913" height="7.73913" rx="3.86957" fill="#172039"/>
<rect x="61.9126" y="61.9131" width="7.73913" height="7.73913" rx="3.86957" fill="#172039"/>
<rect x="61.9126" y="77.3911" width="7.73913" height="7.73913" rx="3.86957" fill="#172039"/>
<rect x="61.9126" y="92.8696" width="7.73913" height="7.73913" rx="3.86957" fill="#172039"/>
<rect x="61.9126" y="108.348" width="7.73913" height="7.73913" rx="3.86957" fill="#172039"/>
<rect x="61.9126" y="123.826" width="7.73913" height="7.73913" rx="3.86957" fill="#172039"/>
<rect x="61.9126" y="139.304" width="7.73913" height="7.73913" rx="3.86957" fill="#172039"/>
<rect x="61.9126" y="154.782" width="7.73913" height="7.73913" rx="3.86957" fill="#172039"/>
<rect x="61.9126" y="170.261" width="7.73913" height="7.73913" rx="3.86957" fill="#172039"/>
<rect x="77.3916" width="7.73913" height="7.73913" rx="3.86957" fill="#172039"/>
<rect x="77.3916" y="15.4783" width="7.73913" height="7.73913" rx="3.86957" fill="#172039"/>
<rect x="77.3916" y="30.9563" width="7.73913" height="7.73913" rx="3.86957" fill="#172039"/>
<rect x="77.3916" y="46.4348" width="7.73913" height="7.73913" rx="3.86957" fill="#172039"/>
<rect x="77.3916" y="61.9131" width="7.73913" height="7.73913" rx="3.86957" fill="#172039"/>
<rect x="77.3916" y="77.3911" width="7.73913" height="7.73913" rx="3.86957" fill="#172039"/>
<rect x="77.3916" y="92.8696" width="7.73913" height="7.73913" rx="3.86957" fill="#172039"/>
<rect x="77.3916" y="108.348" width="7.73913" height="7.73913" rx="3.86957" fill="#172039"/>
<rect x="77.3916" y="123.826" width="7.73913" height="7.73913" rx="3.86957" fill="#172039"/>
<rect x="77.3916" y="139.304" width="7.73913" height="7.73913" rx="3.86957" fill="#172039"/>
<rect x="77.3916" y="154.782" width="7.73913" height="7.73913" rx="3.86957" fill="#172039"/>
<rect x="77.3916" y="170.261" width="7.73913" height="7.73913" rx="3.86957" fill="#172039"/>
<rect x="92.8696" width="7.73913" height="7.73913" rx="3.86957" fill="#172039"/>
<rect x="92.8696" y="15.4783" width="7.73913" height="7.73913" rx="3.86957" fill="#172039"/>
<rect x="92.8696" y="30.9563" width="7.73913" height="7.73913" rx="3.86957" fill="#172039"/>
<rect x="92.8696" y="46.4348" width="7.73913" height="7.73913" rx="3.86957" fill="#172039"/>
<rect x="92.8696" y="61.9131" width="7.73913" height="7.73913" rx="3.86957" fill="#172039"/>
<rect x="92.8696" y="77.3911" width="7.73913" height="7.73913" rx="3.86957" fill="#172039"/>
<rect x="92.8696" y="92.8696" width="7.73913" height="7.73913" rx="3.86957" fill="#172039"/>
<rect x="92.8696" y="108.348" width="7.73913" height="7.73913" rx="3.86957" fill="#172039"/>
<rect x="92.8696" y="123.826" width="7.73913" height="7.73913" rx="3.86957" fill="#172039"/>
<rect x="92.8696" y="139.304" width="7.73913" height="7.73913" rx="3.86957" fill="#172039"/>
<rect x="92.8696" y="154.782" width="7.73913" height="7.73913" rx="3.86957" fill="#172039"/>
<rect x="92.8696" y="170.261" width="7.73913" height="7.73913" rx="3.86957" fill="#172039"/>
<rect x="108.347" width="7.73913" height="7.73913" rx="3.86957" fill="#172039"/>
<rect x="108.347" y="15.4783" width="7.73913" height="7.73913" rx="3.86957" fill="#172039"/>
<rect x="108.347" y="30.9563" width="7.73913" height="7.73913" rx="3.86957" fill="#172039"/>
<rect x="108.347" y="46.4348" width="7.73913" height="7.73913" rx="3.86957" fill="#172039"/>
<rect x="108.347" y="61.9131" width="7.73913" height="7.73913" rx="3.86957" fill="#172039"/>
<rect x="108.347" y="77.3911" width="7.73913" height="7.73913" rx="3.86957" fill="#172039"/>
<rect x="108.347" y="92.8696" width="7.73913" height="7.73913" rx="3.86957" fill="#172039"/>
<rect x="108.347" y="108.348" width="7.73913" height="7.73913" rx="3.86957" fill="#172039"/>
<rect x="108.347" y="123.826" width="7.73913" height="7.73913" rx="3.86957" fill="#172039"/>
<rect x="108.347" y="139.304" width="7.73913" height="7.73913" rx="3.86957" fill="#172039"/>
<rect x="108.347" y="154.782" width="7.73913" height="7.73913" rx="3.86957" fill="#172039"/>
<rect x="108.347" y="170.261" width="7.73913" height="7.73913" rx="3.86957" fill="#172039"/>
<rect x="123.826" width="7.73913" height="7.73913" rx="3.86957" fill="#172039"/>
<rect x="123.826" y="15.4783" width="7.73913" height="7.73913" rx="3.86957" fill="#172039"/>
<rect x="123.826" y="30.9563" width="7.73913" height="7.73913" rx="3.86957" fill="#172039"/>
<rect x="123.826" y="46.4348" width="7.73913" height="7.73913" rx="3.86957" fill="#172039"/>
<rect x="123.826" y="61.9131" width="7.73913" height="7.73913" rx="3.86957" fill="#172039"/>
<rect x="123.826" y="77.3911" width="7.73913" height="7.73913" rx="3.86957" fill="#172039"/>
<rect x="123.826" y="92.8696" width="7.73913" height="7.73913" rx="3.86957" fill="#172039"/>
<rect x="123.826" y="108.348" width="7.73913" height="7.73913" rx="3.86957" fill="#172039"/>
<rect x="123.826" y="123.826" width="7.73913" height="7.73913" rx="3.86957" fill="#172039"/>
<rect x="123.826" y="139.304" width="7.73913" height="7.73913" rx="3.86957" fill="#172039"/>
<rect x="123.826" y="154.782" width="7.73913" height="7.73913" rx="3.86957" fill="#172039"/>
<rect x="123.826" y="170.261" width="7.73913" height="7.73913" rx="3.86957" fill="#172039"/>
<rect x="139.304" width="7.73913" height="7.73913" rx="3.86957" fill="#172039"/>
<rect x="139.304" y="15.4783" width="7.73913" height="7.73913" rx="3.86957" fill="#172039"/>
<rect x="139.304" y="30.9563" width="7.73913" height="7.73913" rx="3.86957" fill="#172039"/>
<rect x="139.304" y="46.4348" width="7.73913" height="7.73913" rx="3.86957" fill="#172039"/>
<rect x="139.304" y="61.9131" width="7.73913" height="7.73913" rx="3.86957" fill="#172039"/>
<rect x="139.304" y="77.3911" width="7.73913" height="7.73913" rx="3.86957" fill="#172039"/>
<rect x="139.304" y="92.8696" width="7.73913" height="7.73913" rx="3.86957" fill="#172039"/>
<rect x="139.304" y="108.348" width="7.73913" height="7.73913" rx="3.86957" fill="#172039"/>
<rect x="139.304" y="123.826" width="7.73913" height="7.73913" rx="3.86957" fill="#172039"/>
<rect x="139.304" y="139.304" width="7.73913" height="7.73913" rx="3.86957" fill="#172039"/>
<rect x="139.304" y="154.782" width="7.73913" height="7.73913" rx="3.86957" fill="#172039"/>
<rect x="139.304" y="170.261" width="7.73913" height="7.73913" rx="3.86957" fill="#172039"/>
<rect x="154.782" width="7.73913" height="7.73913" rx="3.86957" fill="#172039"/>
<rect x="154.782" y="15.4783" width="7.73913" height="7.73913" rx="3.86957" fill="#172039"/>
<rect x="154.782" y="30.9563" width="7.73913" height="7.73913" rx="3.86957" fill="#172039"/>
<rect x="154.782" y="46.4348" width="7.73913" height="7.73913" rx="3.86957" fill="#172039"/>
<rect x="154.782" y="61.9131" width="7.73913" height="7.73913" rx="3.86957" fill="#172039"/>
<rect x="154.782" y="77.3911" width="7.73913" height="7.73913" rx="3.86957" fill="#172039"/>
<rect x="154.782" y="92.8696" width="7.73913" height="7.73913" rx="3.86957" fill="#172039"/>
<rect x="154.782" y="108.348" width="7.73913" height="7.73913" rx="3.86957" fill="#172039"/>
<rect x="154.782" y="123.826" width="7.73913" height="7.73913" rx="3.86957" fill="#172039"/>
<rect x="154.782" y="139.304" width="7.73913" height="7.73913" rx="3.86957" fill="#172039"/>
<rect x="154.782" y="154.782" width="7.73913" height="7.73913" rx="3.86957" fill="#172039"/>
<rect x="154.782" y="170.261" width="7.73913" height="7.73913" rx="3.86957" fill="#172039"/>
<rect x="170.261" width="7.73913" height="7.73913" rx="3.86957" fill="#172039"/>
<rect x="170.261" y="15.4783" width="7.73913" height="7.73913" rx="3.86957" fill="#172039"/>
<rect x="170.261" y="30.9563" width="7.73913" height="7.73913" rx="3.86957" fill="#172039"/>
<rect x="170.261" y="46.4348" width="7.73913" height="7.73913" rx="3.86957" fill="#172039"/>
<rect x="170.261" y="61.9131" width="7.73913" height="7.73913" rx="3.86957" fill="#172039"/>
<rect x="170.261" y="77.3911" width="7.73913" height="7.73913" rx="3.86957" fill="#172039"/>
<rect x="170.261" y="92.8696" width="7.73913" height="7.73913" rx="3.86957" fill="#172039"/>
<rect x="170.261" y="108.348" width="7.73913" height="7.73913" rx="3.86957" fill="#172039"/>
<rect x="170.261" y="123.826" width="7.73913" height="7.73913" rx="3.86957" fill="#172039"/>
<rect x="170.261" y="139.304" width="7.73913" height="7.73913" rx="3.86957" fill="#172039"/>
<rect x="170.261" y="154.782" width="7.73913" height="7.73913" rx="3.86957" fill="#172039"/>
<rect x="170.261" y="170.261" width="7.73913" height="7.73913" rx="3.86957" fill="#172039"/>
</g>
</svg>
