<svg width="65" height="64" viewBox="0 0 65 64" fill="none" xmlns="http://www.w3.org/2000/svg">
<rect x="4" y="31" width="31" height="30" fill="#FF9DA2"/>
<rect x="36" y="33" width="25" height="25" fill="#FFC0C3"/>
<path d="M29.5456 19.9185C30.3506 20.4336 31.2799 20.7077 32.2426 20.7077C33.388 20.7077 34.4435 20.3217 35.286 19.6751L50.2666 26.8344H15.0748L29.5456 19.9185ZM62.7995 30.3701H2.54223V29.3573H62.7995V30.3701ZM60.0522 57.7571H57.1057V32.892H60.0522V57.7571ZM21.3553 57.7571H17.7457V32.892H21.3553V57.7571ZM27.9153 57.7571H24.3058V32.892H27.9153V57.7571ZM34.4754 57.7571H30.8659V32.892H34.4754V57.7571ZM41.0352 57.7571H37.426V32.892H41.0352V57.7571ZM47.5955 57.7571H43.9861V32.892H47.5955V57.7571ZM11.1856 32.892H14.7951V57.7571H11.1856V32.892ZM54.1553 57.7571H50.546V32.892H54.1553V57.7571ZM5.28876 32.892H8.23501V57.7571H5.28876V32.892ZM62.7995 61.3063H2.54223V60.2935H62.7995V61.3063ZM29.8321 2.84684H34.6404L32.2361 6.10286L29.8321 2.84684ZM62.9999 28.7752L55.9952 26.8344C55.904 26.7511 55.8 26.6794 55.6825 26.6228L36.8586 17.6265C37.0961 17.0507 37.2282 16.4207 37.2282 15.7606C37.2282 13.4663 35.6459 11.5327 33.5074 10.9759V8.64922L38.1727 2.33095C38.4557 1.94817 38.4976 1.43937 38.2809 1.01563C38.0644 0.59189 37.6263 0.324886 37.1473 0.324886H27.3252C26.8465 0.324886 26.4081 0.59189 26.1916 1.01563C25.9749 1.43937 26.0168 1.94817 26.2998 2.33095L30.9651 8.65001V11.8336C30.9651 11.8863 30.9695 11.9383 30.976 11.9895C30.9738 12.0179 30.9716 12.0462 30.9716 12.0754C30.9716 12.7716 31.5406 13.3363 32.2426 13.3363C33.5898 13.3363 34.686 14.424 34.686 15.7606C34.686 17.0972 33.5898 18.1849 32.2426 18.1849C31.753 18.1849 31.2814 18.0424 30.8777 17.7722C30.8219 17.7344 30.7692 17.6927 30.7168 17.6509C30.6368 17.5509 30.5432 17.465 30.4399 17.3949C30.3223 17.2673 30.2172 17.1287 30.1298 16.9799C29.7763 16.3781 28.9981 16.1749 28.3913 16.5262C27.8828 16.8208 27.6583 17.4115 27.8074 17.9494L9.65887 26.6228C9.54132 26.6794 9.43686 26.7511 9.34605 26.8344H3.72672C3.02471 26.8344 2.49994 27.9077 2.49994 28.604V30.0923V31.0846C2.49994 31.7808 2.04486 32.892 2.74687 32.892V57.7715L2.54223 59.5349C1.84022 59.5349 2.49994 59.8309 2.49994 60.5272L2.99998 62.0155C2.99998 62.7118 2.29799 62.5117 3 62.5117L62.5405 61.8148C63.2422 61.8148 62.5 62.7118 62.5 62.0156L63 59.5349C63 58.8387 63.6017 60.0311 62.9 60.0311L62.5947 57.7715V32.892L62.7995 31.2559C63.5011 31.2559 63.4999 31.4559 63.4999 30.7597V29.2714C63.4999 28.5751 63.7016 28.7752 62.9999 28.7752Z" fill="#FF3841"/>
<path d="M3.22481 33.2403C1.44379 33.2403 0 31.7965 0 30.0155V30.0155C0 28.2345 1.4438 26.7907 3.22481 26.7907L61.7752 26.7907C63.5562 26.7907 65 28.2345 65 30.0155V30.0155C65 31.7965 63.5562 33.2403 61.7752 33.2403L3.22481 33.2403Z" fill="#FF3841"/>
<path d="M3.22481 64C1.44379 64 0 62.5562 0 60.7752V60.7752C0 58.9942 1.4438 57.5504 3.22481 57.5504H61.7752C63.5562 57.5504 65 58.9942 65 60.7752V60.7752C65 62.5562 63.5562 64 61.7752 64H3.22481Z" fill="#FF3841"/>
</svg>
