<svg width="32" height="23" viewBox="0 0 32 23" fill="none" xmlns="http://www.w3.org/2000/svg">
<path d="M6.85714 9.14286C6.05143 9.14286 5.28929 9.30714 4.57143 9.56429V9.14286C4.57143 6.62143 6.62143 4.57143 9.14286 4.57143C10.405 4.57143 11.4286 3.54786 11.4286 2.28571C11.4286 1.02357 10.4071 0 9.14286 0C4.10143 0 0 4.1 0 9.14286V16C0 19.7871 3.07 22.8571 6.85714 22.8571C10.6443 22.8571 13.7143 19.7871 13.7143 16C13.7143 12.2129 10.6429 9.14286 6.85714 9.14286ZM25.1429 9.14286C24.3371 9.14286 23.575 9.3075 22.8571 9.56279V9.14286C22.8571 6.62143 24.9071 4.57143 27.4286 4.57143C28.6907 4.57143 29.7143 3.54786 29.7143 2.28571C29.7143 1.02357 28.6907 0 27.4286 0C22.3871 0 18.2857 4.10143 18.2857 9.14286V16C18.2857 19.7871 21.3557 22.8571 25.1429 22.8571C28.93 22.8571 32 19.7871 32 16C32 12.2129 28.9286 9.14286 25.1429 9.14286Z" fill="#FF3841"/>
</svg>
