<svg width="104" height="42" viewBox="0 0 104 42" fill="none" xmlns="http://www.w3.org/2000/svg">
<path d="M56.524 10.28V31H51.736V10.28H56.524ZM67.1058 31.224C65.5751 31.224 64.1938 30.8973 62.9618 30.244C61.7485 29.5907 60.7871 28.6573 60.0778 27.444C59.3871 26.2307 59.0418 24.812 59.0418 23.188C59.0418 21.5827 59.3965 20.1733 60.1058 18.96C60.8151 17.728 61.7858 16.7853 63.0178 16.132C64.2498 15.4787 65.6311 15.152 67.1618 15.152C68.6925 15.152 70.0738 15.4787 71.3058 16.132C72.5378 16.7853 73.5085 17.728 74.2178 18.96C74.9271 20.1733 75.2818 21.5827 75.2818 23.188C75.2818 24.7933 74.9178 26.212 74.1898 27.444C73.4805 28.6573 72.5005 29.5907 71.2498 30.244C70.0178 30.8973 68.6365 31.224 67.1058 31.224ZM67.1058 27.08C68.0205 27.08 68.7951 26.744 69.4298 26.072C70.0831 25.4 70.4098 24.4387 70.4098 23.188C70.4098 21.9373 70.0925 20.976 69.4578 20.304C68.8418 19.632 68.0765 19.296 67.1618 19.296C66.2285 19.296 65.4538 19.632 64.8378 20.304C64.2218 20.9573 63.9138 21.9187 63.9138 23.188C63.9138 24.4387 64.2125 25.4 64.8098 26.072C65.4258 26.744 66.1911 27.08 67.1058 27.08ZM83.7579 15.152C84.8593 15.152 85.8206 15.376 86.6419 15.824C87.4819 16.272 88.1259 16.86 88.5739 17.588V15.376H93.3619V30.972C93.3619 32.4093 93.0726 33.7067 92.4939 34.864C91.9339 36.04 91.0659 36.9733 89.8899 37.664C88.7326 38.3547 87.2859 38.7 85.5499 38.7C83.2353 38.7 81.3593 38.1493 79.9219 37.048C78.4846 35.9653 77.6633 34.4907 77.4579 32.624H82.1899C82.3393 33.2213 82.6939 33.688 83.2539 34.024C83.8139 34.3787 84.5046 34.556 85.3259 34.556C86.3153 34.556 87.0993 34.2667 87.6779 33.688C88.2753 33.128 88.5739 32.2227 88.5739 30.972V28.76C88.1073 29.488 87.4633 30.0853 86.6419 30.552C85.8206 31 84.8593 31.224 83.7579 31.224C82.4699 31.224 81.3033 30.8973 80.2579 30.244C79.2126 29.572 78.3819 28.6293 77.7659 27.416C77.1686 26.184 76.8699 24.7653 76.8699 23.16C76.8699 21.5547 77.1686 20.1453 77.7659 18.932C78.3819 17.7187 79.2126 16.7853 80.2579 16.132C81.3033 15.4787 82.4699 15.152 83.7579 15.152ZM88.5739 23.188C88.5739 21.9933 88.2379 21.0507 87.5659 20.36C86.9126 19.6693 86.1099 19.324 85.1579 19.324C84.2059 19.324 83.3939 19.6693 82.7219 20.36C82.0686 21.032 81.7419 21.9653 81.7419 23.16C81.7419 24.3547 82.0686 25.3067 82.7219 26.016C83.3939 26.7067 84.2059 27.052 85.1579 27.052C86.1099 27.052 86.9126 26.7067 87.5659 26.016C88.2379 25.3253 88.5739 24.3827 88.5739 23.188ZM99.2338 13.752C98.3938 13.752 97.7032 13.5093 97.1618 13.024C96.6392 12.52 96.3778 11.904 96.3778 11.176C96.3778 10.4293 96.6392 9.81333 97.1618 9.328C97.7032 8.824 98.3938 8.572 99.2338 8.572C100.055 8.572 100.727 8.824 101.25 9.328C101.791 9.81333 102.062 10.4293 102.062 11.176C102.062 11.904 101.791 12.52 101.25 13.024C100.727 13.5093 100.055 13.752 99.2338 13.752ZM101.614 15.376V31H96.8258V15.376H101.614Z" fill="black"/>
<rect x="10" y="1" width="30" height="30" fill="#5B688B"/>
<circle cx="10" cy="21" r="10" fill="#172039"/>
</svg>
