<svg width="119" height="119" viewBox="0 0 119 119" fill="none" xmlns="http://www.w3.org/2000/svg">
<g opacity="0.4">
<rect width="5.17391" height="5.17391" rx="2.58696" fill="#172039"/>
<rect y="10.3478" width="5.17391" height="5.17391" rx="2.58696" fill="#172039"/>
<rect y="20.6957" width="5.17391" height="5.17391" rx="2.58696" fill="#172039"/>
<rect y="31.0435" width="5.17391" height="5.17391" rx="2.58696" fill="#172039"/>
<rect y="41.3914" width="5.17391" height="5.17391" rx="2.58696" fill="#172039"/>
<rect y="51.7391" width="5.17391" height="5.17391" rx="2.58696" fill="#172039"/>
<rect y="62.0869" width="5.17391" height="5.17391" rx="2.58696" fill="#172039"/>
<rect y="72.4348" width="5.17391" height="5.17391" rx="2.58696" fill="#172039"/>
<rect y="82.7826" width="5.17391" height="5.17391" rx="2.58696" fill="#172039"/>
<rect y="93.1304" width="5.17391" height="5.17391" rx="2.58696" fill="#172039"/>
<rect y="103.478" width="5.17391" height="5.17391" rx="2.58696" fill="#172039"/>
<rect y="113.826" width="5.17391" height="5.17391" rx="2.58696" fill="#172039"/>
<rect x="10.3479" width="5.17391" height="5.17391" rx="2.58696" fill="#172039"/>
<rect x="10.3479" y="10.3478" width="5.17391" height="5.17391" rx="2.58696" fill="#172039"/>
<rect x="10.3479" y="20.6957" width="5.17391" height="5.17391" rx="2.58696" fill="#172039"/>
<rect x="10.3479" y="31.0435" width="5.17391" height="5.17391" rx="2.58696" fill="#172039"/>
<rect x="10.3479" y="41.3914" width="5.17391" height="5.17391" rx="2.58696" fill="#172039"/>
<rect x="10.3479" y="51.7391" width="5.17391" height="5.17391" rx="2.58696" fill="#172039"/>
<rect x="10.3479" y="62.0869" width="5.17391" height="5.17391" rx="2.58696" fill="#172039"/>
<rect x="10.3479" y="72.4348" width="5.17391" height="5.17391" rx="2.58696" fill="#172039"/>
<rect x="10.3479" y="82.7826" width="5.17391" height="5.17391" rx="2.58696" fill="#172039"/>
<rect x="10.3479" y="93.1304" width="5.17391" height="5.17391" rx="2.58696" fill="#172039"/>
<rect x="10.3479" y="103.478" width="5.17391" height="5.17391" rx="2.58696" fill="#172039"/>
<rect x="10.3479" y="113.826" width="5.17391" height="5.17391" rx="2.58696" fill="#172039"/>
<rect x="20.6956" width="5.17391" height="5.17391" rx="2.58696" fill="#172039"/>
<rect x="20.6956" y="10.3478" width="5.17391" height="5.17391" rx="2.58696" fill="#172039"/>
<rect x="20.6956" y="20.6957" width="5.17391" height="5.17391" rx="2.58696" fill="#172039"/>
<rect x="20.6956" y="31.0435" width="5.17391" height="5.17391" rx="2.58696" fill="#172039"/>
<rect x="20.6956" y="41.3914" width="5.17391" height="5.17391" rx="2.58696" fill="#172039"/>
<rect x="20.6956" y="51.7391" width="5.17391" height="5.17391" rx="2.58696" fill="#172039"/>
<rect x="20.6956" y="62.0869" width="5.17391" height="5.17391" rx="2.58696" fill="#172039"/>
<rect x="20.6956" y="72.4348" width="5.17391" height="5.17391" rx="2.58696" fill="#172039"/>
<rect x="20.6956" y="82.7826" width="5.17391" height="5.17391" rx="2.58696" fill="#172039"/>
<rect x="20.6956" y="93.1304" width="5.17391" height="5.17391" rx="2.58696" fill="#172039"/>
<rect x="20.6956" y="103.478" width="5.17391" height="5.17391" rx="2.58696" fill="#172039"/>
<rect x="20.6956" y="113.826" width="5.17391" height="5.17391" rx="2.58696" fill="#172039"/>
<rect x="31.0435" width="5.17391" height="5.17391" rx="2.58696" fill="#172039"/>
<rect x="31.0435" y="10.3478" width="5.17391" height="5.17391" rx="2.58696" fill="#172039"/>
<rect x="31.0435" y="20.6957" width="5.17391" height="5.17391" rx="2.58696" fill="#172039"/>
<rect x="31.0435" y="31.0435" width="5.17391" height="5.17391" rx="2.58696" fill="#172039"/>
<rect x="31.0435" y="41.3914" width="5.17391" height="5.17391" rx="2.58696" fill="#172039"/>
<rect x="31.0435" y="51.7391" width="5.17391" height="5.17391" rx="2.58696" fill="#172039"/>
<rect x="31.0435" y="62.0869" width="5.17391" height="5.17391" rx="2.58696" fill="#172039"/>
<rect x="31.0435" y="72.4348" width="5.17391" height="5.17391" rx="2.58696" fill="#172039"/>
<rect x="31.0435" y="82.7826" width="5.17391" height="5.17391" rx="2.58696" fill="#172039"/>
<rect x="31.0435" y="93.1304" width="5.17391" height="5.17391" rx="2.58696" fill="#172039"/>
<rect x="31.0435" y="103.478" width="5.17391" height="5.17391" rx="2.58696" fill="#172039"/>
<rect x="31.0435" y="113.826" width="5.17391" height="5.17391" rx="2.58696" fill="#172039"/>
<rect x="41.3914" width="5.17391" height="5.17391" rx="2.58696" fill="#172039"/>
<rect x="41.3914" y="10.3478" width="5.17391" height="5.17391" rx="2.58696" fill="#172039"/>
<rect x="41.3914" y="20.6957" width="5.17391" height="5.17391" rx="2.58696" fill="#172039"/>
<rect x="41.3914" y="31.0435" width="5.17391" height="5.17391" rx="2.58696" fill="#172039"/>
<rect x="41.3914" y="41.3914" width="5.17391" height="5.17391" rx="2.58696" fill="#172039"/>
<rect x="41.3914" y="51.7391" width="5.17391" height="5.17391" rx="2.58696" fill="#172039"/>
<rect x="41.3914" y="62.0869" width="5.17391" height="5.17391" rx="2.58696" fill="#172039"/>
<rect x="41.3914" y="72.4348" width="5.17391" height="5.17391" rx="2.58696" fill="#172039"/>
<rect x="41.3914" y="82.7826" width="5.17391" height="5.17391" rx="2.58696" fill="#172039"/>
<rect x="41.3914" y="93.1304" width="5.17391" height="5.17391" rx="2.58696" fill="#172039"/>
<rect x="41.3914" y="103.478" width="5.17391" height="5.17391" rx="2.58696" fill="#172039"/>
<rect x="41.3914" y="113.826" width="5.17391" height="5.17391" rx="2.58696" fill="#172039"/>
<rect x="51.739" width="5.17391" height="5.17391" rx="2.58696" fill="#172039"/>
<rect x="51.739" y="10.3478" width="5.17391" height="5.17391" rx="2.58696" fill="#172039"/>
<rect x="51.739" y="20.6957" width="5.17391" height="5.17391" rx="2.58696" fill="#172039"/>
<rect x="51.739" y="31.0435" width="5.17391" height="5.17391" rx="2.58696" fill="#172039"/>
<rect x="51.739" y="41.3914" width="5.17391" height="5.17391" rx="2.58696" fill="#172039"/>
<rect x="51.739" y="51.7391" width="5.17391" height="5.17391" rx="2.58696" fill="#172039"/>
<rect x="51.739" y="62.0869" width="5.17391" height="5.17391" rx="2.58696" fill="#172039"/>
<rect x="51.739" y="72.4348" width="5.17391" height="5.17391" rx="2.58696" fill="#172039"/>
<rect x="51.739" y="82.7826" width="5.17391" height="5.17391" rx="2.58696" fill="#172039"/>
<rect x="51.739" y="93.1304" width="5.17391" height="5.17391" rx="2.58696" fill="#172039"/>
<rect x="51.739" y="103.478" width="5.17391" height="5.17391" rx="2.58696" fill="#172039"/>
<rect x="51.739" y="113.826" width="5.17391" height="5.17391" rx="2.58696" fill="#172039"/>
<rect x="62.0869" width="5.17391" height="5.17391" rx="2.58696" fill="#172039"/>
<rect x="62.0869" y="10.3478" width="5.17391" height="5.17391" rx="2.58696" fill="#172039"/>
<rect x="62.0869" y="20.6957" width="5.17391" height="5.17391" rx="2.58696" fill="#172039"/>
<rect x="62.0869" y="31.0435" width="5.17391" height="5.17391" rx="2.58696" fill="#172039"/>
<rect x="62.0869" y="41.3914" width="5.17391" height="5.17391" rx="2.58696" fill="#172039"/>
<rect x="62.0869" y="51.7391" width="5.17391" height="5.17391" rx="2.58696" fill="#172039"/>
<rect x="62.0869" y="62.0869" width="5.17391" height="5.17391" rx="2.58696" fill="#172039"/>
<rect x="62.0869" y="72.4348" width="5.17391" height="5.17391" rx="2.58696" fill="#172039"/>
<rect x="62.0869" y="82.7826" width="5.17391" height="5.17391" rx="2.58696" fill="#172039"/>
<rect x="62.0869" y="93.1304" width="5.17391" height="5.17391" rx="2.58696" fill="#172039"/>
<rect x="62.0869" y="103.478" width="5.17391" height="5.17391" rx="2.58696" fill="#172039"/>
<rect x="62.0869" y="113.826" width="5.17391" height="5.17391" rx="2.58696" fill="#172039"/>
<rect x="72.4348" width="5.17391" height="5.17391" rx="2.58696" fill="#172039"/>
<rect x="72.4348" y="10.3478" width="5.17391" height="5.17391" rx="2.58696" fill="#172039"/>
<rect x="72.4348" y="20.6957" width="5.17391" height="5.17391" rx="2.58696" fill="#172039"/>
<rect x="72.4348" y="31.0435" width="5.17391" height="5.17391" rx="2.58696" fill="#172039"/>
<rect x="72.4348" y="41.3914" width="5.17391" height="5.17391" rx="2.58696" fill="#172039"/>
<rect x="72.4348" y="51.7391" width="5.17391" height="5.17391" rx="2.58696" fill="#172039"/>
<rect x="72.4348" y="62.0869" width="5.17391" height="5.17391" rx="2.58696" fill="#172039"/>
<rect x="72.4348" y="72.4348" width="5.17391" height="5.17391" rx="2.58696" fill="#172039"/>
<rect x="72.4348" y="82.7826" width="5.17391" height="5.17391" rx="2.58696" fill="#172039"/>
<rect x="72.4348" y="93.1304" width="5.17391" height="5.17391" rx="2.58696" fill="#172039"/>
<rect x="72.4348" y="103.478" width="5.17391" height="5.17391" rx="2.58696" fill="#172039"/>
<rect x="72.4348" y="113.826" width="5.17391" height="5.17391" rx="2.58696" fill="#172039"/>
<rect x="82.7827" width="5.17391" height="5.17391" rx="2.58696" fill="#172039"/>
<rect x="82.7827" y="10.3478" width="5.17391" height="5.17391" rx="2.58696" fill="#172039"/>
<rect x="82.7827" y="20.6957" width="5.17391" height="5.17391" rx="2.58696" fill="#172039"/>
<rect x="82.7827" y="31.0435" width="5.17391" height="5.17391" rx="2.58696" fill="#172039"/>
<rect x="82.7827" y="41.3914" width="5.17391" height="5.17391" rx="2.58696" fill="#172039"/>
<rect x="82.7827" y="51.7391" width="5.17391" height="5.17391" rx="2.58696" fill="#172039"/>
<rect x="82.7827" y="62.0869" width="5.17391" height="5.17391" rx="2.58696" fill="#172039"/>
<rect x="82.7827" y="72.4348" width="5.17391" height="5.17391" rx="2.58696" fill="#172039"/>
<rect x="82.7827" y="82.7826" width="5.17391" height="5.17391" rx="2.58696" fill="#172039"/>
<rect x="82.7827" y="93.1304" width="5.17391" height="5.17391" rx="2.58696" fill="#172039"/>
<rect x="82.7827" y="103.478" width="5.17391" height="5.17391" rx="2.58696" fill="#172039"/>
<rect x="82.7827" y="113.826" width="5.17391" height="5.17391" rx="2.58696" fill="#172039"/>
<rect x="93.1304" width="5.17391" height="5.17391" rx="2.58696" fill="#172039"/>
<rect x="93.1304" y="10.3478" width="5.17391" height="5.17391" rx="2.58696" fill="#172039"/>
<rect x="93.1304" y="20.6957" width="5.17391" height="5.17391" rx="2.58696" fill="#172039"/>
<rect x="93.1304" y="31.0435" width="5.17391" height="5.17391" rx="2.58696" fill="#172039"/>
<rect x="93.1304" y="41.3914" width="5.17391" height="5.17391" rx="2.58696" fill="#172039"/>
<rect x="93.1304" y="51.7391" width="5.17391" height="5.17391" rx="2.58696" fill="#172039"/>
<rect x="93.1304" y="62.0869" width="5.17391" height="5.17391" rx="2.58696" fill="#172039"/>
<rect x="93.1304" y="72.4348" width="5.17391" height="5.17391" rx="2.58696" fill="#172039"/>
<rect x="93.1304" y="82.7826" width="5.17391" height="5.17391" rx="2.58696" fill="#172039"/>
<rect x="93.1304" y="93.1304" width="5.17391" height="5.17391" rx="2.58696" fill="#172039"/>
<rect x="93.1304" y="103.478" width="5.17391" height="5.17391" rx="2.58696" fill="#172039"/>
<rect x="93.1304" y="113.826" width="5.17391" height="5.17391" rx="2.58696" fill="#172039"/>
<rect x="103.478" width="5.17391" height="5.17391" rx="2.58696" fill="#172039"/>
<rect x="103.478" y="10.3478" width="5.17391" height="5.17391" rx="2.58696" fill="#172039"/>
<rect x="103.478" y="20.6957" width="5.17391" height="5.17391" rx="2.58696" fill="#172039"/>
<rect x="103.478" y="31.0435" width="5.17391" height="5.17391" rx="2.58696" fill="#172039"/>
<rect x="103.478" y="41.3914" width="5.17391" height="5.17391" rx="2.58696" fill="#172039"/>
<rect x="103.478" y="51.7391" width="5.17391" height="5.17391" rx="2.58696" fill="#172039"/>
<rect x="103.478" y="62.0869" width="5.17391" height="5.17391" rx="2.58696" fill="#172039"/>
<rect x="103.478" y="72.4348" width="5.17391" height="5.17391" rx="2.58696" fill="#172039"/>
<rect x="103.478" y="82.7826" width="5.17391" height="5.17391" rx="2.58696" fill="#172039"/>
<rect x="103.478" y="93.1304" width="5.17391" height="5.17391" rx="2.58696" fill="#172039"/>
<rect x="103.478" y="103.478" width="5.17391" height="5.17391" rx="2.58696" fill="#172039"/>
<rect x="103.478" y="113.826" width="5.17391" height="5.17391" rx="2.58696" fill="#172039"/>
<rect x="113.826" width="5.17391" height="5.17391" rx="2.58696" fill="#172039"/>
<rect x="113.826" y="10.3478" width="5.17391" height="5.17391" rx="2.58696" fill="#172039"/>
<rect x="113.826" y="20.6957" width="5.17391" height="5.17391" rx="2.58696" fill="#172039"/>
<rect x="113.826" y="31.0435" width="5.17391" height="5.17391" rx="2.58696" fill="#172039"/>
<rect x="113.826" y="41.3914" width="5.17391" height="5.17391" rx="2.58696" fill="#172039"/>
<rect x="113.826" y="51.7391" width="5.17391" height="5.17391" rx="2.58696" fill="#172039"/>
<rect x="113.826" y="62.0869" width="5.17391" height="5.17391" rx="2.58696" fill="#172039"/>
<rect x="113.826" y="72.4348" width="5.17391" height="5.17391" rx="2.58696" fill="#172039"/>
<rect x="113.826" y="82.7826" width="5.17391" height="5.17391" rx="2.58696" fill="#172039"/>
<rect x="113.826" y="93.1304" width="5.17391" height="5.17391" rx="2.58696" fill="#172039"/>
<rect x="113.826" y="103.478" width="5.17391" height="5.17391" rx="2.58696" fill="#172039"/>
<rect x="113.826" y="113.826" width="5.17391" height="5.17391" rx="2.58696" fill="#172039"/>
</g>
</svg>
